<svg width="32" height="32" viewBox="0 0 28 28" fill="none" xmlns="http://www.w3.org/2000/svg">
<path fill-rule="evenodd" clip-rule="evenodd" d="M18.3413 4.2501C16.2402 3.31393 13.8928 3.082 11.6492 3.58892C9.40556 4.09584 7.3859 5.31444 5.89142 7.06298C4.39694 8.81151 3.50772 10.9963 3.35638 13.2915C3.20503 15.5867 3.79967 17.8693 5.05161 19.799C6.30355 21.7286 8.14571 23.2019 10.3034 23.999C12.461 24.7961 14.8185 24.8744 17.0243 24.2223C19.2301 23.5701 21.166 22.2223 22.5432 20.38C23.9205 18.5378 24.6653 16.2996 24.6666 13.9994V12.9267C24.6666 12.3744 25.1143 11.9267 25.6666 11.9267C26.2189 11.9267 26.6666 12.3744 26.6666 12.9267V14C26.665 16.7315 25.7806 19.3898 24.1451 21.5776C22.5096 23.7653 20.2107 25.3657 17.5914 26.1402C14.972 26.9146 12.1724 26.8216 9.61025 25.875C7.04805 24.9284 4.86048 23.179 3.3738 20.8875C1.88712 18.5961 1.18099 15.8855 1.36071 13.1599C1.54043 10.4344 2.59638 7.83992 4.37107 5.76354C6.14577 3.68715 8.54411 2.24006 11.2084 1.6381C13.8727 1.03613 16.6603 1.31154 19.1553 2.42324C19.6597 2.64802 19.8865 3.2392 19.6617 3.74367C19.4369 4.24814 18.8457 4.47488 18.3413 4.2501Z" fill="#407BFF"/>
<path fill-rule="evenodd" clip-rule="evenodd" d="M26.3734 3.95917C26.7641 4.34949 26.7645 4.98266 26.3741 5.37338L14.7075 17.0517C14.52 17.2394 14.2656 17.3449 14.0003 17.345C13.7349 17.345 13.4805 17.2397 13.2929 17.0521L9.79289 13.5521C9.40237 13.1615 9.40237 12.5284 9.79289 12.1379C10.1834 11.7473 10.8166 11.7473 11.2071 12.1379L13.9996 14.9304L24.9592 3.95987C25.3495 3.56915 25.9827 3.56884 26.3734 3.95917Z" fill="#407BFF"/>
</svg>
 